<svg xmlns="http://www.w3.org/2000/svg" xmlns:xlink="http://www.w3.org/1999/xlink" viewBox="0 0 137.32 32"><defs><style>.cls-1{fill:none;}.cls-2{clip-path:url(#clip-path);}.cls-3{fill:#090a0f;}</style><clipPath id="clip-path" transform="translate(0 0)"><rect class="cls-1" width="137.32" height="32"/></clipPath></defs><title>Signature - YG FAMILY</title><g id="Layer_2" data-name="Layer 2"><g id="Layer_1-2" data-name="Layer 1"><g id="Signature_-_YG_FAMILY" data-name="Signature - YG FAMILY"><g class="cls-2"><polygon class="cls-3" points="80.52 9.79 80.52 13.67 77.48 13.67 77.48 9.79 73.3 0.2 76.47 0.2 79 6.45 81.53 0.2 84.7 0.2 80.52 9.79"/><g class="cls-2"><path class="cls-3" d="M90.34,13.88c-3.28,0-4.93-1.68-4.93-4.12V4.12C85.41,1.64,87.07,0,90.34,0a23.66,23.66,0,0,1,4.31.43l-.36,2.65a31.78,31.78,0,0,0-3.94-.32c-1.51,0-1.9.79-1.9,1.84V9.22a1.67,1.67,0,0,0,1.9,1.92,12.42,12.42,0,0,0,1.8-.12V6.9H95v6.33a17,17,0,0,1-4.65.65" transform="translate(0 0)"/><polygon class="cls-3" points="74.61 31.91 74.61 18.43 83.16 18.43 83.16 21.12 77.64 21.12 77.64 24 82.74 24 82.74 26.69 77.64 26.69 77.64 31.91 74.61 31.91"/><path class="cls-3" d="M95.44,31.91H92.28l-.73-2.63H87l-.73,2.63H83.16l4.11-13.47h4Zm-7.71-5.16h3.1l-1.54-5.64Z" transform="translate(0 0)"/><polygon class="cls-3" points="99.89 24.42 99.68 31.91 96.75 31.91 97.32 18.43 100.35 18.43 103.59 27.01 106.82 18.43 109.86 18.43 110.42 31.91 107.49 31.91 107.29 24.42 104.94 30.17 102.23 30.17 99.89 24.42"/><rect class="cls-3" x="112.95" y="18.43" width="3.03" height="13.47"/><polygon class="cls-3" points="118.71 31.91 118.71 18.43 121.75 18.43 121.75 29.22 127.08 29.22 127.08 31.91 118.71 31.91"/><polygon class="cls-3" points="133.13 28.02 133.13 31.91 130.1 31.91 130.1 28.02 125.91 18.43 129.09 18.43 131.62 24.68 134.14 18.43 137.32 18.43 133.13 28.02"/><polygon class="cls-3" points="0 0.05 0 18.17 18.12 0.05 0 0.05"/><polygon class="cls-3" points="31.95 0.05 0 32 14.51 32 31.95 14.55 49.36 32 63.9 32 63.9 14.74 54.43 14.74 54.43 22.79 41.08 9.44 63.9 9.44 63.9 0.05 31.95 0.05"/></g></g></g></g></g></svg>